<svg xmlns="http://www.w3.org/2000/svg" width="561" height="171" viewBox="0 0 561 171">
  <path d="M47.98 146.30Q42.26 146.30 38.65 142.52Q35.04 138.74 33.19 132.36Q31.34 125.98 30.67 117.74Q30 109.51 30 100.78Q30 94.90 30.25 88.76Q30.50 82.63 31.93 77.42Q33.36 72.22 36.80 68.94Q40.25 65.66 46.63 65.66Q51.17 65.66 54.86 67.76Q58.56 69.86 59.57 74.06Q63.43 70.54 69.40 68.94Q75.36 67.34 81.74 67.34Q87.12 67.34 92.66 69.95Q98.21 72.55 102.07 77.09Q105.94 81.62 105.94 87.34Q105.94 92.21 102.32 96.58Q98.71 100.94 92.16 100.94Q89.30 100.94 87.46 100.19Q85.61 99.43 83.93 98.76Q82.25 98.09 79.90 98.09Q73.68 98.09 68.56 103.04Q63.43 108 63.43 116.40Q63.43 120.77 63.18 125.89Q62.93 131.02 61.67 135.72Q60.41 140.42 57.22 143.36Q54.02 146.30 47.98 146.30M147.94 146.47Q135.50 146.64 126.18 141.35Q116.86 136.06 111.56 126.90Q106.27 117.74 105.94 106.66Q105.77 95.23 111.14 86.41Q116.52 77.59 126.10 72.38Q135.67 67.18 147.94 67.18Q160.03 67.01 169.36 72.22Q178.68 77.42 184.22 86.33Q189.77 95.23 190.10 106.66Q190.27 117.58 184.90 126.56Q179.52 135.55 169.94 140.84Q160.37 146.14 147.94 146.47M148.44 121.94Q152.98 121.94 156.34 118.42Q159.70 114.89 159.70 110.18Q159.70 105.48 156.34 102.04Q152.98 98.59 148.44 98.59Q143.90 98.59 140.54 102.04Q137.18 105.48 137.18 110.18Q137.18 114.89 140.54 118.42Q143.90 121.94 148.44 121.94M237.14 146.47Q224.71 146.64 215.39 141.35Q206.06 136.06 200.77 126.90Q195.48 117.74 195.14 106.66Q194.98 95.23 200.35 86.41Q205.73 77.59 215.30 72.38Q224.88 67.18 237.14 67.18Q249.24 67.01 258.56 72.22Q267.89 77.42 273.43 86.33Q278.98 95.23 279.31 106.66Q279.48 117.58 274.10 126.56Q268.73 135.55 259.15 140.84Q249.58 146.14 237.14 146.47M237.65 121.94Q242.18 121.94 245.54 118.42Q248.90 114.89 248.90 110.18Q248.90 105.48 245.54 102.04Q242.18 98.59 237.65 98.59Q233.11 98.59 229.75 102.04Q226.39 105.48 226.39 110.18Q226.39 114.89 229.75 118.42Q233.11 121.94 237.65 121.94M340.97 146.30Q332.90 146.30 330.22 140.76Q327.53 135.22 327.53 125.14Q327.53 116.74 327.02 111.19Q326.52 105.65 322.32 105.65Q318.79 105.65 317.36 108.17Q315.94 110.69 315.77 115.06Q315.60 119.42 315.60 125.14Q315.60 131.02 314.84 135.80Q314.09 140.59 311.32 143.36Q308.54 146.14 302.50 146.14Q296.62 146.14 293 141.94Q289.39 137.74 287.54 130.85Q285.70 123.96 285.02 115.90Q284.35 107.83 284.35 100.10Q284.35 85.99 286.87 76.67Q289.39 67.34 297.62 64.99Q302.66 63.48 307.20 64.82Q311.74 66.17 313.25 69.86Q314.93 69.02 317.28 68.10Q319.63 67.18 324.67 67.18Q329.71 67.18 334.58 69.70Q339.46 72.22 341.64 77.09Q345.67 72.38 350.21 69.70Q354.74 67.01 362.64 67.18Q373.22 67.34 380.78 73.64Q388.34 79.94 392.46 90.44Q396.58 100.94 396.58 113.71Q396.58 121.94 395.15 129.42Q393.72 136.90 389.94 141.60Q386.16 146.30 379.27 146.30Q373.22 146.30 370.45 143.45Q367.68 140.59 366.92 135.80Q366.17 131.02 366.17 125.14Q366.17 119.42 366 115.06Q365.83 110.69 364.49 108.17Q363.14 105.65 359.45 105.65Q356.76 105.65 355.75 108.17Q354.74 110.69 354.66 115.06Q354.58 119.42 354.41 125.14Q354.24 135.22 351.47 140.76Q348.70 146.30 340.97 146.30M421.27 64.82Q413.04 64.82 407.33 58.86Q401.62 52.90 401.62 44.33Q401.62 38.62 404.22 34.08Q406.82 29.54 411.28 26.77Q415.73 24 421.27 24Q426.65 24 431.10 26.77Q435.55 29.54 438.24 34.08Q440.93 38.62 440.93 44.33Q440.93 50.04 438.24 54.66Q435.55 59.28 431.10 62.05Q426.65 64.82 421.27 64.82M421.27 146.30Q414.55 146.30 411.28 142.44Q408 138.58 406.91 130.60Q405.82 122.62 405.65 110.02Q405.65 97.42 406.74 89.35Q407.83 81.29 411.19 77.51Q414.55 73.73 421.27 73.73Q427.99 73.73 431.27 77.51Q434.54 81.29 435.72 89.35Q436.90 97.42 436.90 110.02Q437.06 122.62 435.89 130.60Q434.71 138.58 431.35 142.44Q427.99 146.30 421.27 146.30M487.97 146.47Q475.54 146.64 466.21 141.35Q456.89 136.06 451.60 126.90Q446.30 117.74 445.97 106.66Q445.80 95.23 451.18 86.41Q456.55 77.59 466.13 72.38Q475.70 67.18 487.97 67.18Q500.06 67.01 509.39 72.22Q518.71 77.42 524.26 86.33Q529.80 95.23 530.14 106.66Q530.30 117.58 524.93 126.56Q519.55 135.55 509.98 140.84Q500.40 146.14 487.97 146.47M488.47 121.94Q493.01 121.94 496.37 118.42Q499.73 114.89 499.73 110.18Q499.73 105.48 496.37 102.04Q493.01 98.59 488.47 98.59Q483.94 98.59 480.58 102.04Q477.22 105.48 477.22 110.18Q477.22 114.89 480.58 118.42Q483.94 121.94 488.47 121.94" fill="#2563eb" />
</svg>
