<svg xmlns="http://www.w3.org/2000/svg" width="611" height="176" viewBox="0 0 611 176">
  <path d="M47.84 151.71Q39.92 151.71 36.58 149.34Q33.23 146.96 32.62 143.18Q32 139.39 32 135.52L32 78.14Q32 74.10 32.70 70.49Q33.41 66.88 36.75 64.59Q40.10 62.30 48.02 62.30Q55.76 62.30 59.02 64.42Q62.27 66.53 62.98 69.08Q63.68 71.63 63.68 73.04L60.86 71.98Q60.86 71.98 62.27 70.40Q63.68 68.82 66.41 66.70Q69.14 64.59 72.92 63.01Q76.70 61.42 81.46 61.42Q83.04 61.42 85.42 61.69Q87.79 61.95 90.52 62.66Q93.25 63.36 95.62 64.77Q98 66.18 99.50 68.46Q100.99 70.75 100.99 74.10Q100.99 82.90 97.21 89.06Q93.42 95.22 87.26 95.22Q83.92 95.22 82.51 94.78Q81.10 94.34 80.49 93.90Q79.87 93.46 79.08 93.02Q78.29 92.58 76.18 92.58Q73.54 92.58 71.34 93.19Q69.14 93.81 67.46 95.04Q65.79 96.27 64.91 97.94Q64.03 99.62 64.03 101.55L64.03 135.87Q64.03 139.74 63.33 143.44Q62.62 147.14 59.28 149.42Q55.94 151.71 47.84 151.71M152.03 153.30Q143.94 153.30 135.66 150.04Q127.39 146.78 120.44 140.71Q113.49 134.64 109.35 126.10Q105.22 117.57 105.22 107.01Q105.22 97.33 108.91 88.88Q112.61 80.43 119.03 74.01Q125.46 67.58 133.82 63.89Q142.18 60.19 151.68 60.19Q164.70 60.19 175.26 66.44Q185.82 72.69 192.16 83.25Q198.50 93.81 198.50 106.83Q198.50 117.92 194.27 126.54Q190.05 135.17 183.18 141.15Q176.32 147.14 168.14 150.22Q159.95 153.30 152.03 153.30M151.68 121.09Q154.32 121.09 157.75 119.77Q161.18 118.45 163.74 115.28Q166.29 112.11 166.29 106.66Q166.29 102.26 164.44 99.09Q162.59 95.92 159.25 94.16Q155.90 92.40 151.50 92.40Q147.63 92.40 144.46 94.25Q141.30 96.10 139.36 99.35Q137.42 102.61 137.42 106.83Q137.42 112.11 139.89 115.28Q142.35 118.45 145.70 119.77Q149.04 121.09 151.68 121.09M250.24 153.30Q242.14 153.30 233.87 150.04Q225.60 146.78 218.65 140.71Q211.70 134.64 207.56 126.10Q203.42 117.57 203.42 107.01Q203.42 97.33 207.12 88.88Q210.82 80.43 217.24 74.01Q223.66 67.58 232.02 63.89Q240.38 60.19 249.89 60.19Q262.91 60.19 273.47 66.44Q284.03 72.69 290.37 83.25Q296.70 93.81 296.70 106.83Q296.70 117.92 292.48 126.54Q288.26 135.17 281.39 141.15Q274.53 147.14 266.34 150.22Q258.16 153.30 250.24 153.30M249.89 121.09Q252.53 121.09 255.96 119.77Q259.39 118.45 261.94 115.28Q264.50 112.11 264.50 106.66Q264.50 102.26 262.65 99.09Q260.80 95.92 257.46 94.16Q254.11 92.40 249.71 92.40Q245.84 92.40 242.67 94.25Q239.50 96.10 237.57 99.35Q235.63 102.61 235.63 106.83Q235.63 112.11 238.10 115.28Q240.56 118.45 243.90 119.77Q247.25 121.09 249.89 121.09M319.94 151.71Q312.02 151.71 308.67 149.34Q305.33 146.96 304.71 143.26Q304.10 139.57 304.10 135.70L304.10 78.14Q304.10 74.10 304.80 70.49Q305.50 66.88 308.85 64.59Q312.19 62.30 320.29 62.30Q328.21 62.30 331.82 65.38Q335.42 68.46 335.42 75.33L332.43 74.45Q332.43 74.45 333.75 72.60Q335.07 70.75 337.62 68.29Q340.18 65.82 343.87 63.98Q347.57 62.13 352.32 62.13Q357.78 62.13 362.35 63.54Q366.93 64.94 370.71 67.85Q374.50 70.75 377.31 74.98Q379.25 72.69 382.59 69.70Q385.94 66.70 390.60 64.42Q395.26 62.13 401.07 62.13Q411.46 62.13 418.76 67.41Q426.06 72.69 429.85 82.72Q433.63 92.75 433.63 107.01L433.63 135.70Q433.63 139.57 432.93 143.26Q432.22 146.96 428.88 149.34Q425.54 151.71 417.44 151.71Q409.52 151.71 406.18 149.25Q402.83 146.78 402.22 143.09Q401.60 139.39 401.60 135.52L401.60 106.83Q401.60 102.61 400.63 99.88Q399.66 97.15 397.82 95.74Q395.97 94.34 393.15 94.34Q390.16 94.34 388.31 95.57Q386.46 96.80 385.67 99.53Q384.88 102.26 384.88 107.01L384.88 135.70Q384.88 139.57 384.18 143.26Q383.47 146.96 380.13 149.34Q376.78 151.71 368.69 151.71Q360.77 151.71 357.42 149.25Q354.08 146.78 353.46 143.09Q352.85 139.39 352.85 135.52L352.85 106.83Q352.85 102.61 351.97 99.79Q351.09 96.98 349.24 95.66Q347.39 94.34 344.40 94.34Q340.88 94.34 339.12 96.10Q337.36 97.86 336.74 100.67Q336.13 103.49 336.13 106.83L336.13 135.87Q336.13 139.74 335.42 143.44Q334.72 147.14 331.38 149.42Q328.03 151.71 319.94 151.71M460.38 151.71Q452.46 151.71 449.12 149.34Q445.78 146.96 445.16 143.26Q444.54 139.57 444.54 135.70L444.54 78.32Q444.54 74.45 445.25 70.84Q445.95 67.23 449.30 64.86Q452.64 62.48 460.56 62.48Q468.48 62.48 471.74 64.86Q474.99 67.23 475.70 70.93Q476.40 74.62 476.40 78.67L476.40 135.87Q476.40 139.74 475.70 143.44Q474.99 147.14 471.74 149.42Q468.48 151.71 460.38 151.71M460.38 53.86Q452.46 53.86 449.12 51.48Q445.78 49.10 445.16 45.41Q444.54 41.71 444.54 37.84Q444.54 33.79 445.25 30.18Q445.95 26.58 449.30 24.29Q452.64 22 460.56 22Q468.48 22 471.74 24.38Q474.99 26.75 475.70 30.45Q476.40 34.14 476.40 38.02Q476.40 41.89 475.70 45.58Q474.99 49.28 471.74 51.57Q468.48 53.86 460.38 53.86M531.84 153.30Q523.74 153.30 515.47 150.04Q507.20 146.78 500.25 140.71Q493.30 134.64 489.16 126.10Q485.02 117.57 485.02 107.01Q485.02 97.33 488.72 88.88Q492.42 80.43 498.84 74.01Q505.26 67.58 513.62 63.89Q521.98 60.19 531.49 60.19Q544.51 60.19 555.07 66.44Q565.63 72.69 571.97 83.25Q578.30 93.81 578.30 106.83Q578.30 117.92 574.08 126.54Q569.86 135.17 562.99 141.15Q556.13 147.14 547.94 150.22Q539.76 153.30 531.84 153.30M531.49 121.09Q534.13 121.09 537.56 119.77Q540.99 118.45 543.54 115.28Q546.10 112.11 546.10 106.66Q546.10 102.26 544.25 99.09Q542.40 95.92 539.06 94.16Q535.71 92.40 531.31 92.40Q527.44 92.40 524.27 94.25Q521.10 96.10 519.17 99.35Q517.23 102.61 517.23 106.83Q517.23 112.11 519.70 115.28Q522.16 118.45 525.50 119.77Q528.85 121.09 531.49 121.09" fill="#2563eb" />
</svg>
