<svg xmlns="http://www.w3.org/2000/svg" width="670" height="175" viewBox="0 0 670 175">
  <path d="M32 81.47Q32 61.98 36.87 53.33Q41.74 44.68 50.48 44.68Q56.36 44.68 59.89 48.29Q63.42 51.90 65.01 57.20Q66.61 62.49 66.61 67.86L65.77 67.53Q68.62 58.46 74.34 51.90Q80.05 45.35 88.28 45.35Q99.20 45.35 104.41 53.92Q109.62 62.49 109.62 75.42Q109.62 92.39 104.32 99.20Q99.03 106 90.30 106Q83.58 106 80.47 102.22Q77.36 98.44 77.86 90.71Q78.20 85 77.44 82.90Q76.69 80.80 75.18 80.80Q72.99 80.80 71.98 83.24Q70.98 85.67 70.98 90.04Q70.98 93.40 71.82 98.44Q72.66 103.48 73.66 109.44Q74.67 115.41 75.51 121.29Q76.35 127.17 76.35 132.04Q76.35 142.46 71.31 146.82Q66.27 151.19 57.20 151.19Q48.63 151.19 43.17 146.82Q37.71 142.46 35.86 132.54Q34.86 126.50 33.93 117.42Q33.01 108.35 32.50 98.69Q32 89.03 32 81.47M162.70 151.36Q147.58 151.36 136.41 145.40Q125.24 139.43 119.11 128.34Q112.98 117.26 112.98 101.97Q112.98 86.01 119.19 74.08Q125.41 62.15 136.75 55.43Q148.09 48.71 163.21 48.71Q179.34 48.71 191.18 55.18Q203.02 61.65 209.58 73.24Q216.13 84.83 216.13 100.29Q216.13 116.08 209.49 127.50Q202.86 138.93 190.93 145.14Q179 151.36 162.70 151.36M165.06 116.75Q171.61 116.75 175.56 111.71Q179.50 106.67 179.50 98.27Q179.50 89.87 175.56 84.83Q171.61 79.79 165.06 79.79Q158.34 79.79 154.39 84.83Q150.44 89.87 150.44 98.27Q150.44 106.67 154.39 111.71Q158.34 116.75 165.06 116.75M270.90 151.36Q255.78 151.36 244.60 145.40Q233.43 139.43 227.30 128.34Q221.17 117.26 221.17 101.97Q221.17 86.01 227.38 74.08Q233.60 62.15 244.94 55.43Q256.28 48.71 271.40 48.71Q287.53 48.71 299.37 55.18Q311.22 61.65 317.77 73.24Q324.32 84.83 324.32 100.29Q324.32 116.08 317.68 127.50Q311.05 138.93 299.12 145.14Q287.19 151.36 270.90 151.36M273.25 116.75Q279.80 116.75 283.75 111.71Q287.70 106.67 287.70 98.27Q287.70 89.87 283.75 84.83Q279.80 79.79 273.25 79.79Q266.53 79.79 262.58 84.83Q258.63 89.87 258.63 98.27Q258.63 106.67 262.58 111.71Q266.53 116.75 273.25 116.75M420.92 75.93L418.57 73.91Q420.25 67.02 424.62 61.48Q428.98 55.94 435.28 52.66Q441.58 49.38 449.14 49.38Q458.22 49.38 465.27 53.58Q472.33 57.78 476.36 67.36Q480.39 76.94 480.39 92.90Q480.39 100.62 479.72 108.60Q479.05 116.58 478.04 123.39Q477.03 130.19 475.86 134.73Q473.84 142.96 468.38 146.99Q462.92 151.02 455.02 151.02Q447.46 151.02 443.10 146.82Q438.73 142.62 438.73 134.90Q438.73 132.04 439.57 127.08Q440.41 122.13 441.42 116.42Q442.42 110.70 443.26 105.24Q444.10 99.78 444.10 96.09Q444.10 90.71 442.17 87.77Q440.24 84.83 436.71 84.83Q432.01 84.83 429.15 90.88Q426.30 96.93 425.62 108.35Q425.12 117.09 424.36 123.81Q423.61 130.53 421.93 135.06Q419.74 141.28 415.63 144.39Q411.51 147.50 404.62 147.50Q397.06 147.50 392.53 143.21Q387.99 138.93 387.66 129.86Q387.49 124.82 387.57 117.93Q387.66 111.04 387.74 104.32Q387.82 97.60 387.49 93.23Q387.15 87.02 385.05 84.08Q382.95 81.14 379.09 81.14Q374.89 81.14 372.54 85.50Q370.18 89.87 369.34 97.77Q369.18 101.63 369.18 107.34Q369.18 113.06 369.26 118.68Q369.34 124.31 369.18 128.18Q368.84 140.27 364.14 145.48Q359.43 150.69 351.03 150.69Q341.62 150.69 337.09 145.48Q332.55 140.27 331.54 128.68Q330.87 122.13 330.54 115.58Q330.20 109.02 330.20 102.47Q330.20 95.92 330.70 88.44Q331.21 80.97 331.88 74.25Q333.22 62.99 337.34 55.52Q341.46 48.04 350.70 48.04Q359.10 48.04 362.79 52.83Q366.49 57.62 366.49 67.53Q366.49 70.89 365.98 73.74L365.48 70.38Q368.84 59.46 376.74 53.33Q384.63 47.20 394.21 47.20Q406.47 47.20 413.36 54.84Q420.25 62.49 420.92 75.93M508.95 22Q519.37 22 523.82 26.87Q528.27 31.74 528.27 38.13Q528.27 45.86 522.73 50.14Q517.18 54.42 507.27 54.42Q497.53 54.42 492.74 49.72Q487.95 45.02 487.95 38.63Q487.95 30.40 493.75 26.20Q499.54 22 508.95 22M510.80 59.46Q519.03 59.46 523.65 69.54Q528.27 79.62 528.27 101.63Q528.27 128.68 522.48 140.61Q516.68 152.54 504.92 152.54Q495.68 152.54 491.40 143.72Q487.11 134.90 487.11 112.89Q487.11 85.84 493.66 72.65Q500.22 59.46 510.80 59.46M583.88 151.36Q568.76 151.36 557.59 145.40Q546.42 139.43 540.28 128.34Q534.15 117.26 534.15 101.97Q534.15 86.01 540.37 74.08Q546.58 62.15 557.92 55.43Q569.26 48.71 584.38 48.71Q600.51 48.71 612.36 55.18Q624.20 61.65 630.75 73.24Q637.30 84.83 637.30 100.29Q637.30 116.08 630.67 127.50Q624.03 138.93 612.10 145.14Q600.18 151.36 583.88 151.36M586.23 116.75Q592.78 116.75 596.73 111.71Q600.68 106.67 600.68 98.27Q600.68 89.87 596.73 84.83Q592.78 79.79 586.23 79.79Q579.51 79.79 575.56 84.83Q571.62 89.87 571.62 98.27Q571.62 106.67 575.56 111.71Q579.51 116.75 586.23 116.75" fill="#2563eb" />
</svg>
