<svg xmlns="http://www.w3.org/2000/svg" width="640" height="154" viewBox="0 0 640 154">
  <path d="M64.12 82.51L64.12 116.28Q64.12 126.36 59.92 130.31Q55.72 134.26 44.97 134.26Q35.06 134.26 31.53 129.64Q28 125.02 28 114.43L28 73.10Q28 67.39 30.02 63.11Q32.03 58.82 35.90 56.47Q39.76 54.12 44.97 54.12Q57.74 54.12 61.77 61.51Q71.51 54.12 80.58 54.12Q98.22 54.12 98.22 70.92Q98.22 77.64 94.36 81.84Q90.50 86.04 84.28 86.04Q80.58 86.04 78.32 84.53Q76.05 83.02 74.12 81.50Q72.18 79.99 69.66 79.99Q65.97 79.99 64.12 82.51M158.20 94.44Q158.20 85.70 156.02 79.07Q153.83 72.43 149.63 72.43Q146.78 72.43 144.59 75.79Q142.41 79.15 141.40 84.02Q140.39 88.90 140.39 94.44Q140.39 103.01 142.74 109.48Q145.10 115.94 149.46 115.94Q153.83 115.94 156.02 109.56Q158.20 103.18 158.20 94.44M149.46 135.43Q136.36 135.43 125.86 130.73Q115.36 126.02 109.06 116.62Q102.76 107.21 102.76 94.61Q102.76 75.46 115.86 64.20Q128.97 52.94 149.46 52.94Q169.96 52.94 182.90 64.20Q195.83 75.46 195.83 94.61Q195.83 113.59 182.64 124.51Q169.46 135.43 149.46 135.43M264.21 94.44Q264.21 85.70 262.02 79.07Q259.84 72.43 255.64 72.43Q252.78 72.43 250.60 75.79Q248.42 79.15 247.41 84.02Q246.40 88.90 246.40 94.44Q246.40 103.01 248.75 109.48Q251.10 115.94 255.47 115.94Q259.84 115.94 262.02 109.56Q264.21 103.18 264.21 94.44M255.47 135.43Q242.37 135.43 231.87 130.73Q221.37 126.02 215.07 116.62Q208.77 107.21 208.77 94.61Q208.77 75.46 221.87 64.20Q234.98 52.94 255.47 52.94Q275.97 52.94 288.90 64.20Q301.84 75.46 301.84 94.61Q301.84 113.59 288.65 124.51Q275.46 135.43 255.47 135.43M415.58 120.31L415.58 89.90Q415.58 80.50 408.02 80.50Q404.66 80.50 402.98 84.36Q401.30 88.22 401.30 94.10Q401.30 103.01 401.04 108.89Q400.79 114.77 399.95 119.47Q399.11 124.18 397.94 126.86Q396.76 129.55 394.74 131.32Q392.73 133.08 390.21 133.67Q387.69 134.26 383.82 134.26Q377.94 134.26 374.33 132.58Q370.72 130.90 369.21 127.87Q367.70 124.85 367.70 120.31L367.70 89.90Q367.70 80.50 360.14 80.50Q357.11 80.50 355.18 83.94Q353.25 87.38 353.25 92.93L353.25 116.28Q353.25 126.36 349.05 130.31Q344.85 134.26 334.26 134.26Q324.35 134.26 320.74 129.64Q317.13 125.02 317.13 114.43L317.13 73.10Q317.13 64.54 321.75 59.33Q326.37 54.12 334.10 54.12Q347.87 54.12 351.57 63.02Q357.95 58.32 364.08 56.47Q370.22 54.62 378.45 54.62Q390.88 54.62 396.42 65.38Q397.26 64.70 398.10 64.03Q411.04 54.62 429.86 54.62Q441.78 54.62 446.99 63.70Q452.20 72.77 452.20 94.10Q452.20 103.01 451.95 108.89Q451.70 114.77 450.86 119.47Q450.02 124.18 448.76 126.86Q447.50 129.55 445.23 131.32Q442.96 133.08 440.19 133.67Q437.42 134.26 433.22 134.26Q426.83 134.26 422.88 132.58Q418.94 130.90 417.26 127.87Q415.58 124.85 415.58 120.31M467.49 30.77Q467.49 25.22 472.28 21.61Q477.06 18 485.80 18Q504.11 18 504.11 30.77Q504.11 37.82 499.49 40.68Q494.87 43.54 485.80 43.54Q477.90 43.54 472.70 40.51Q467.49 37.49 467.49 30.77M503.94 72.60L503.94 116.28Q503.94 126.36 499.74 130.31Q495.54 134.26 484.96 134.26Q475.05 134.26 471.44 129.64Q467.82 125.02 467.82 114.43L467.82 73.10Q467.82 64.54 472.44 59.33Q477.06 54.12 484.79 54.12Q493.86 54.12 498.90 58.07Q503.94 62.02 503.94 72.60M573.50 94.44Q573.50 85.70 571.31 79.07Q569.13 72.43 564.93 72.43Q562.07 72.43 559.89 75.79Q557.70 79.15 556.70 84.02Q555.69 88.90 555.69 94.44Q555.69 103.01 558.04 109.48Q560.39 115.94 564.76 115.94Q569.13 115.94 571.31 109.56Q573.50 103.18 573.50 94.44M564.76 135.43Q551.66 135.43 541.16 130.73Q530.66 126.02 524.36 116.62Q518.06 107.21 518.06 94.61Q518.06 75.46 531.16 64.20Q544.26 52.94 564.76 52.94Q585.26 52.94 598.19 64.20Q611.13 75.46 611.13 94.61Q611.13 113.59 597.94 124.51Q584.75 135.43 564.76 135.43" fill="#2563eb" />
</svg>
