<svg xmlns="http://www.w3.org/2000/svg" width="461" height="271" viewBox="0 0 461 271">
  <path d="M30 52.85Q30 35.45 34.35 27.72Q38.70 20 46.50 20Q51.75 20 54.90 23.22Q58.05 26.45 59.48 31.17Q60.90 35.90 60.90 40.70L60.15 40.40Q62.70 32.30 67.80 26.45Q72.90 20.60 80.25 20.60Q90 20.60 94.65 28.25Q99.30 35.90 99.30 47.45Q99.30 62.60 94.58 68.67Q89.85 74.75 82.05 74.75Q76.05 74.75 73.28 71.38Q70.50 68 70.95 61.10Q71.25 56 70.57 54.13Q69.90 52.25 68.55 52.25Q66.60 52.25 65.70 54.42Q64.80 56.60 64.80 60.50Q64.80 63.50 65.55 68Q66.30 72.50 67.20 77.83Q68.10 83.15 68.85 88.40Q69.60 93.65 69.60 98Q69.60 107.30 65.10 111.20Q60.60 115.10 52.50 115.10Q44.85 115.10 39.98 111.20Q35.10 107.30 33.45 98.45Q32.55 93.05 31.73 84.95Q30.90 76.85 30.45 68.23Q30 59.60 30 52.85M146.70 115.25Q133.20 115.25 123.22 109.92Q113.25 104.60 107.77 94.70Q102.30 84.80 102.30 71.15Q102.30 56.90 107.85 46.25Q113.40 35.60 123.52 29.60Q133.65 23.60 147.15 23.60Q161.55 23.60 172.13 29.38Q182.70 35.15 188.55 45.50Q194.40 55.85 194.40 69.65Q194.40 83.75 188.47 93.95Q182.55 104.15 171.90 109.70Q161.25 115.25 146.70 115.25M148.80 84.35Q154.65 84.35 158.18 79.85Q161.70 75.35 161.70 67.85Q161.70 60.35 158.18 55.85Q154.65 51.35 148.80 51.35Q142.80 51.35 139.28 55.85Q135.75 60.35 135.75 67.85Q135.75 75.35 139.28 79.85Q142.80 84.35 148.80 84.35M243.30 115.25Q229.80 115.25 219.82 109.92Q209.85 104.60 204.37 94.70Q198.90 84.80 198.90 71.15Q198.90 56.90 204.45 46.25Q210 35.60 220.12 29.60Q230.25 23.60 243.75 23.60Q258.15 23.60 268.72 29.38Q279.30 35.15 285.15 45.50Q291 55.85 291 69.65Q291 83.75 285.07 93.95Q279.15 104.15 268.50 109.70Q257.85 115.25 243.30 115.25M245.40 84.35Q251.25 84.35 254.77 79.85Q258.30 75.35 258.30 67.85Q258.30 60.35 254.77 55.85Q251.25 51.35 245.40 51.35Q239.40 51.35 235.87 55.85Q232.35 60.35 232.35 67.85Q232.35 75.35 235.87 79.85Q239.40 84.35 245.40 84.35M377.25 47.90L375.15 46.10Q376.65 39.95 380.55 35Q384.45 30.05 390.07 27.13Q395.70 24.20 402.45 24.20Q410.55 24.20 416.85 27.95Q423.15 31.70 426.75 40.25Q430.35 48.80 430.35 63.05Q430.35 69.95 429.75 77.08Q429.15 84.20 428.25 90.27Q427.35 96.35 426.30 100.40Q424.50 107.75 419.63 111.35Q414.75 114.95 407.70 114.95Q400.95 114.95 397.05 111.20Q393.15 107.45 393.15 100.55Q393.15 98 393.90 93.58Q394.65 89.15 395.55 84.05Q396.45 78.95 397.20 74.08Q397.95 69.20 397.95 65.90Q397.95 61.10 396.23 58.48Q394.50 55.85 391.35 55.85Q387.15 55.85 384.60 61.25Q382.05 66.65 381.45 76.85Q381 84.65 380.32 90.65Q379.65 96.65 378.15 100.70Q376.20 106.25 372.52 109.02Q368.85 111.80 362.70 111.80Q355.95 111.80 351.90 107.98Q347.85 104.15 347.55 96.05Q347.40 91.55 347.48 85.40Q347.55 79.25 347.63 73.25Q347.70 67.25 347.40 63.35Q347.10 57.80 345.23 55.17Q343.35 52.55 339.90 52.55Q336.15 52.55 334.05 56.45Q331.95 60.35 331.20 67.40Q331.05 70.85 331.05 75.95Q331.05 81.05 331.13 86.08Q331.20 91.10 331.05 94.55Q330.75 105.35 326.55 110Q322.35 114.65 314.85 114.65Q306.45 114.65 302.40 110Q298.35 105.35 297.45 95Q296.85 89.15 296.55 83.30Q296.25 77.45 296.25 71.60Q296.25 65.75 296.70 59.08Q297.15 52.40 297.75 46.40Q298.95 36.35 302.63 29.67Q306.30 23 314.55 23Q322.05 23 325.35 27.28Q328.65 31.55 328.65 40.40Q328.65 43.40 328.20 45.95L327.75 42.95Q330.75 33.20 337.80 27.72Q344.85 22.25 353.40 22.25Q364.35 22.25 370.50 29.08Q376.65 35.90 377.25 47.90" fill="#2563eb" />
  <path d="M49.50 133.75Q58.80 133.75 62.77 138.10Q66.75 142.45 66.75 148.15Q66.75 155.05 61.80 158.88Q56.85 162.70 48 162.70Q39.30 162.70 35.02 158.50Q30.75 154.30 30.75 148.60Q30.75 141.25 35.92 137.50Q41.10 133.75 49.50 133.75M51.15 167.20Q58.50 167.20 62.63 176.20Q66.75 185.20 66.75 204.85Q66.75 229 61.57 239.65Q56.40 250.30 45.90 250.30Q37.65 250.30 33.83 242.43Q30 234.55 30 214.90Q30 190.75 35.85 178.98Q41.70 167.20 51.15 167.20M116.40 249.25Q102.90 249.25 92.92 243.93Q82.95 238.60 77.47 228.70Q72 218.80 72 205.15Q72 190.90 77.55 180.25Q83.10 169.60 93.22 163.60Q103.35 157.60 116.85 157.60Q131.25 157.60 141.82 163.38Q152.40 169.15 158.25 179.50Q164.10 189.85 164.10 203.65Q164.10 217.75 158.18 227.95Q152.25 238.15 141.60 243.70Q130.95 249.25 116.40 249.25M118.50 218.35Q124.35 218.35 127.88 213.85Q131.40 209.35 131.40 201.85Q131.40 194.35 127.88 189.85Q124.35 185.35 118.50 185.35Q112.50 185.35 108.97 189.85Q105.45 194.35 105.45 201.85Q105.45 209.35 108.97 213.85Q112.50 218.35 118.50 218.35" fill="#2563eb" />
</svg>
