<svg xmlns="http://www.w3.org/2000/svg" width="708" height="180" viewBox="0 0 708 180">
  <path d="M83.07 76.28Q87.60 69.84 92.91 67.14Q98.21 64.45 102.74 63.75Q108.13 63.05 113.35 64.10Q118.57 65.49 121.88 68.10Q125.18 70.71 126.92 73.84Q128.66 76.97 129.36 80.11Q130.05 83.24 130.05 85.50Q130.23 91.07 128.58 95.16Q126.92 99.25 125.01 101.68Q122.75 104.81 119.61 106.55Q114.05 109.86 108.74 109.69Q103.43 109.51 99.08 108.12Q94.04 106.38 89.51 103.25Q90.90 113.69 90.47 121.52Q90.03 129.35 88.38 135Q86.73 140.66 84.12 144.40Q81.51 148.14 78.55 150.40Q71.59 155.80 61.85 155.45Q54.36 155.80 49.67 153.19Q44.97 150.58 42.01 147.27Q38.70 143.44 36.79 138.57Q33.66 129.17 32.70 119.08Q31.74 108.99 32.09 100.64Q32.27 90.89 33.66 81.50Q35.57 73.15 39.84 68.88Q44.10 64.62 48.62 62.71Q53.84 60.62 60.11 60.62Q67.41 60.27 71.94 62.79Q76.46 65.32 78.90 68.27Q81.86 71.75 83.07 76.28M225.93 134.05Q223.14 139.09 219.40 142.83Q215.66 146.57 212.18 149.01Q208.18 151.97 204 153.71Q200.52 155.10 197.31 155.88Q194.09 156.67 191.65 157.01Q188.69 157.54 186.43 157.54Q176.86 157.54 169.64 155.62Q162.42 153.71 157.02 150.66Q151.63 147.62 147.89 143.62Q144.15 139.61 141.89 135.44Q136.14 125.87 135.62 113.34Q135.62 103.25 137.80 95.85Q139.97 88.46 143.54 83.15Q147.11 77.84 151.72 74.36Q156.33 70.88 161.03 68.80Q172.16 63.92 186.43 64.45Q194.78 64.45 201.22 66.36Q207.66 68.27 212.44 71.41Q217.23 74.54 220.45 78.45Q223.67 82.37 225.75 86.54Q230.63 96.11 231.32 108.47Q231.32 116.65 229.84 122.91Q228.36 129.17 225.93 134.05M185.39 106.55Q182.43 106.55 180.25 108.82Q178.08 111.08 178.43 113.86Q178.77 117.52 180.60 118.91Q182.43 120.30 185.39 120.30Q188.34 120.30 190.26 118.56Q192.17 116.82 192.17 113.86Q192.17 111.08 190.43 108.82Q188.69 106.55 185.39 106.55M327.89 134.05Q325.11 139.09 321.37 142.83Q317.63 146.57 314.15 149.01Q310.14 151.97 305.97 153.71Q302.49 155.10 299.27 155.88Q296.05 156.67 293.61 157.01Q290.66 157.54 288.39 157.54Q278.82 157.54 271.60 155.62Q264.38 153.71 258.99 150.66Q253.59 147.62 249.85 143.62Q246.11 139.61 243.85 135.44Q238.11 125.87 237.59 113.34Q237.59 103.25 239.76 95.85Q241.94 88.46 245.50 83.15Q249.07 77.84 253.68 74.36Q258.29 70.88 262.99 68.80Q274.13 63.92 288.39 64.45Q296.75 64.45 303.18 66.36Q309.62 68.27 314.41 71.41Q319.19 74.54 322.41 78.45Q325.63 82.37 327.72 86.54Q332.59 96.11 333.29 108.47Q333.29 116.65 331.81 122.91Q330.33 129.17 327.89 134.05M287.35 106.55Q284.39 106.55 282.22 108.82Q280.04 111.08 280.39 113.86Q280.74 117.52 282.57 118.91Q284.39 120.30 287.35 120.30Q290.31 120.30 292.22 118.56Q294.14 116.82 294.14 113.86Q294.14 111.08 292.40 108.82Q290.66 106.55 287.35 106.55M477.36 67.23Q483.80 69.32 488.15 73.32Q492.50 77.32 495.28 82.54Q498.06 87.76 499.54 93.77Q501.02 99.77 501.54 105.68Q502.76 119.60 500.33 135.96Q498.76 141.88 495.80 146.40Q493.19 150.40 488.84 153.53Q484.49 156.67 477.36 156.67Q470.92 156.67 466.48 154.23Q462.05 151.79 459.09 148.05Q456.13 144.31 454.39 139.88Q452.65 135.44 451.87 131.35Q451.08 127.26 450.91 124.13Q450.74 121 450.74 119.95Q450.56 121.34 450.13 124.65Q449.69 127.96 448.56 132.05Q447.43 136.13 445.43 140.66Q443.43 145.18 440.30 148.84Q437.16 152.49 432.55 154.84Q427.94 157.19 421.68 157.19Q415.24 157.19 410.63 154.75Q406.02 152.32 402.80 148.58Q399.58 144.83 397.49 140.31Q395.40 135.79 394.19 131.61Q392.97 127.43 392.53 124.04Q392.10 120.65 391.92 119.26Q391.92 120.30 391.66 123.52Q391.40 126.74 390.62 130.91Q389.84 135.09 388.18 139.61Q386.53 144.14 383.75 147.97Q380.96 151.79 376.87 154.23Q372.78 156.67 367.04 156.67Q359.04 156.67 354.34 153.27Q349.64 149.88 347.21 145.70Q344.25 141.01 343.38 134.74Q341.81 118.56 343.38 104.99Q344.07 99.25 345.47 93.33Q346.86 87.41 349.29 82.28Q351.73 77.15 355.47 73.23Q359.21 69.32 364.61 67.23Q374.35 63.58 382.27 63.75Q390.18 63.92 396.36 66.53Q402.54 69.14 407.06 73.41Q411.59 77.67 414.72 82.11Q417.85 86.54 419.50 90.55Q421.16 94.55 421.68 96.46Q422.20 94.55 423.85 90.72Q425.51 86.89 428.46 82.63Q431.42 78.37 435.77 74.28Q440.12 70.19 446.21 67.58Q452.30 64.97 459.96 64.53Q467.61 64.10 477.36 67.23M561.75 38.87Q562.10 42.70 560.79 46.35Q559.49 50 556.96 52.88Q554.44 55.75 550.79 57.57Q547.13 59.40 542.78 59.92Q538.26 60.44 534.34 59.31Q530.43 58.18 527.30 55.92Q524.16 53.66 522.16 50.44Q520.16 47.22 519.64 43.22Q519.29 39.39 520.60 35.82Q521.90 32.26 524.51 29.39Q527.12 26.51 530.78 24.60Q534.43 22.69 538.78 22.16Q543.13 21.64 547.05 22.77Q550.96 23.90 554.09 26.17Q557.22 28.43 559.31 31.73Q561.40 35.04 561.75 38.87M569.23 136.66Q567.84 144.49 563.84 148.58Q559.83 152.66 555.66 154.58Q550.61 156.67 544.87 156.84Q537.39 157.19 532.69 154.84Q527.99 152.49 525.21 149.53Q522.08 146.23 520.16 141.70Q516.68 132.31 516.07 122.30Q515.46 112.30 516.33 103.94Q517.20 94.37 519.47 85.15Q521.55 77.15 525.64 73.06Q529.73 68.97 533.73 67.06Q538.43 64.97 543.65 64.79Q551.66 64.45 556.62 67.49Q561.57 70.54 564.53 74.54Q567.84 79.06 569.40 85.33Q570.62 91.07 571.32 98.72Q571.84 105.34 571.58 114.82Q571.32 124.30 569.23 136.66M670.50 134.05Q667.71 139.09 663.97 142.83Q660.23 146.57 656.75 149.01Q652.75 151.97 648.57 153.71Q645.09 155.10 641.88 155.88Q638.66 156.67 636.22 157.01Q633.26 157.54 631 157.54Q621.43 157.54 614.21 155.62Q606.99 153.71 601.59 150.66Q596.20 147.62 592.46 143.62Q588.72 139.61 586.46 135.44Q580.71 125.87 580.19 113.34Q580.19 103.25 582.37 95.85Q584.54 88.46 588.11 83.15Q591.68 77.84 596.29 74.36Q600.90 70.88 605.60 68.80Q616.73 63.92 631 64.45Q639.35 64.45 645.79 66.36Q652.23 68.27 657.01 71.41Q661.80 74.54 665.02 78.45Q668.24 82.37 670.32 86.54Q675.20 96.11 675.89 108.47Q675.89 116.65 674.41 122.91Q672.93 129.17 670.50 134.05M629.96 106.55Q627 106.55 624.82 108.82Q622.65 111.08 623 113.86Q623.34 117.52 625.17 118.91Q627 120.30 629.96 120.30Q632.91 120.30 634.83 118.56Q636.74 116.82 636.74 113.86Q636.74 111.08 635 108.82Q633.26 106.55 629.96 106.55" fill="#2563eb" />
</svg>
