<svg xmlns="http://www.w3.org/2000/svg" width="580" height="167" viewBox="0 0 580 167">
  <path d="M72.94 95.50L72.94 144.61Q72.94 145.84 56.93 145.84Q40.91 145.49 40.91 144.43L40.91 86L36.16 86Q33.34 86 31.67 82.57Q30 79.14 30 74.03Q30 55.02 41.26 55.02Q49.18 55.02 54.46 59.86Q59.74 64.70 59.74 70.86Q63.44 63.65 69.69 59.34Q75.94 55.02 82.45 55.02Q92.66 55.02 94.77 60.30Q95.30 61.71 95.30 64.44Q95.30 67.17 93.62 74.21Q91.95 81.25 90.19 84.42Q88.43 87.58 88.08 87.58Q87.73 87.58 84.82 86.26Q81.92 84.94 79.63 84.94Q72.94 84.94 72.94 95.50M111.75 134.40Q100.75 122.26 100.75 100.78Q100.75 79.31 111.75 67.17Q122.75 55.02 141.41 55.02Q160.06 55.02 170.98 67.17Q181.89 79.31 181.89 100.78Q181.89 122.26 170.98 134.40Q160.06 146.54 141.41 146.54Q122.75 146.54 111.75 134.40M141.50 84.42Q131.55 84.42 131.55 100.61Q131.55 116.80 141.50 116.80Q151.44 116.80 151.44 100.61Q151.44 84.42 141.50 84.42M202.04 134.40Q191.04 122.26 191.04 100.78Q191.04 79.31 202.04 67.17Q213.04 55.02 231.70 55.02Q250.35 55.02 261.26 67.17Q272.18 79.31 272.18 100.78Q272.18 122.26 261.26 134.40Q250.35 146.54 231.70 146.54Q213.04 146.54 202.04 134.40M231.78 84.42Q221.84 84.42 221.84 100.61Q221.84 116.80 231.78 116.80Q241.73 116.80 241.73 100.61Q241.73 84.42 231.78 84.42M364.40 87.41L364.40 143.90Q364.40 145.14 349.35 145.14Q334.30 145.14 334.30 143.55L334.30 92.34Q334.30 83.54 328.50 83.54Q325.50 83.54 320.58 87.41L320.58 143.73Q320.58 145.49 305.53 145.49Q290.48 145.49 290.48 143.55L290.48 86L286.08 86Q280.27 86 280.27 73.86Q280.27 68.40 282.38 62.77Q285.20 55.02 291.54 55.02Q297.87 55.02 303.77 58.37Q309.66 61.71 310.90 64.70Q321.81 55.02 335.10 55.02Q348.38 55.02 356.48 63.30Q365.98 55.02 379.36 55.02Q408.40 55.02 408.40 90.40L408.40 143.90Q408.40 145.14 393.35 145.14Q378.30 145.14 378.30 143.55L378.30 92.34Q378.30 83.54 372.50 83.54Q369.33 83.54 364.40 87.41M455.57 57.31L455.57 143.73Q455.57 145.14 439.46 145.14Q423.36 145.14 423.36 143.90L423.36 57.49Q423.36 56.26 439.46 56.26Q455.57 56.26 455.57 57.31M455.57 21.06L455.57 46.93Q455.57 48.16 439.46 48.16Q423.36 48.16 423.36 47.10L423.36 21.76Q423.36 20 439.46 20Q455.57 20 455.57 21.06M479.06 134.40Q468.06 122.26 468.06 100.78Q468.06 79.31 479.06 67.17Q490.06 55.02 508.72 55.02Q527.38 55.02 538.29 67.17Q549.20 79.31 549.20 100.78Q549.20 122.26 538.29 134.40Q527.38 146.54 508.72 146.54Q490.06 146.54 479.06 134.40M508.81 84.42Q498.86 84.42 498.86 100.61Q498.86 116.80 508.81 116.80Q518.75 116.80 518.75 100.61Q518.75 84.42 508.81 84.42" fill="#2563eb" />
</svg>
