<svg xmlns="http://www.w3.org/2000/svg" width="718" height="173" viewBox="0 0 718 173">
  <path d="M75.36 97.95L75.36 147.01Q75.36 148.86 65.87 149.95Q56.38 151.04 46.21 151.04Q36.05 151.04 33.02 150.12Q30 149.19 30 147.01L30 64.18Q30 60.99 39.32 57.30Q48.65 53.60 59.65 53.60Q70.66 53.60 72 59.65L73.68 67.38L74.86 67.38Q77.21 60.99 86.11 56.54Q95.02 52.09 103.92 52.09Q112.82 52.09 116.44 54.94Q120.05 57.80 120.05 62.25Q120.05 66.70 119.38 73.59Q118.70 80.48 116.10 88.54Q113.50 96.61 109.30 96.61Q107.62 96.61 98.71 94.09Q89.81 91.57 84.01 91.57Q78.22 91.57 76.79 93.25Q75.36 94.93 75.36 97.95M180.19 152.55Q167.59 152.55 158.52 150.37Q149.45 148.18 142.06 142.64Q126.77 131.55 126.77 101.31Q126.77 74.43 142.39 62.84Q157.01 52.09 180.19 52.09Q190.10 52.09 197.16 53.01Q204.22 53.94 211.52 56.96Q218.83 59.98 223.28 65.19Q227.74 70.40 230.59 79.56Q233.45 88.71 233.45 101.31Q233.45 126.85 219 139.70Q204.55 152.55 180.19 152.55M174.31 119.79Q175.49 125.84 176.75 127.02Q178.01 128.19 180.11 128.19Q182.21 128.19 183.47 127.02Q184.73 125.84 185.82 119.79Q186.91 113.74 186.91 104.59Q186.91 95.43 186.49 90.48Q186.07 85.52 185.48 82.83Q184.90 80.14 183.89 78.63Q182.38 76.45 180.28 76.45Q178.18 76.45 176.83 77.71Q175.49 78.97 174.31 85.10Q173.14 91.23 173.14 102.49Q173.14 113.74 174.31 119.79M295.27 152.55Q282.67 152.55 273.60 150.37Q264.53 148.18 257.14 142.64Q241.85 131.55 241.85 101.31Q241.85 74.43 257.47 62.84Q272.09 52.09 295.27 52.09Q305.18 52.09 312.24 53.01Q319.30 53.94 326.60 56.96Q333.91 59.98 338.36 65.19Q342.82 70.40 345.67 79.56Q348.53 88.71 348.53 101.31Q348.53 126.85 334.08 139.70Q319.63 152.55 295.27 152.55M289.39 119.79Q290.57 125.84 291.83 127.02Q293.09 128.19 295.19 128.19Q297.29 128.19 298.55 127.02Q299.81 125.84 300.90 119.79Q301.99 113.74 301.99 104.59Q301.99 95.43 301.57 90.48Q301.15 85.52 300.56 82.83Q299.98 80.14 298.97 78.63Q297.46 76.45 295.36 76.45Q293.26 76.45 291.91 77.71Q290.57 78.97 289.39 85.10Q288.22 91.23 288.22 102.49Q288.22 113.74 289.39 119.79M511.66 95.60L511.66 147.01Q511.66 148.86 502.16 149.95Q492.67 151.04 482.51 151.04Q472.34 151.04 469.32 150.12Q466.30 149.19 466.30 147.01L466.30 100.47Q466.30 76.45 461.42 76.45Q460.25 76.45 459.07 77.46Q457.90 78.46 457.90 80.98L457.90 147.01Q457.90 148.86 448.40 149.95Q438.91 151.04 428.66 151.04Q418.42 151.04 415.48 150.12Q412.54 149.19 412.54 147.01L412.54 100.47Q412.54 81.82 410.18 78.13Q409.01 76.45 407.16 76.45Q403.97 76.45 403.97 80.98L403.97 147.01Q403.97 148.86 394.39 149.95Q384.82 151.04 374.65 151.04Q364.49 151.04 361.55 150.12Q358.61 149.19 358.61 147.01L358.61 64.18Q358.61 60.66 368.27 57.13Q377.93 53.60 388.68 53.60Q399.43 53.60 400.78 59.82L402.29 67.21L403.46 67.21Q408.34 57.63 419.59 53.60Q424.30 52.09 431.69 52.09Q446.47 52.09 453.19 67.21Q455.38 62.17 464.11 57.13Q472.85 52.09 483.43 52.09Q500.06 52.09 505.86 62.42Q511.66 72.75 511.66 95.60M569.62 64.18L569.62 147.01Q569.62 148.86 559.96 149.95Q550.30 151.04 540.13 151.04Q529.97 151.04 527.03 150.12Q524.09 149.19 524.09 147.01L524.09 67.21Q524.09 63.51 533.58 59.90Q543.07 56.29 554.33 56.29Q569.62 56.29 569.62 64.18M546.77 20Q557.86 20 564.16 23.28Q570.46 26.55 570.46 35.12Q570.46 50.24 546.94 50.24Q523.42 50.24 523.42 35.12Q523.42 20 546.77 20M633.96 152.55Q621.36 152.55 612.29 150.37Q603.22 148.18 595.82 142.64Q580.54 131.55 580.54 101.31Q580.54 74.43 596.16 62.84Q610.78 52.09 633.96 52.09Q643.87 52.09 650.93 53.01Q657.98 53.94 665.29 56.96Q672.60 59.98 677.05 65.19Q681.50 70.40 684.36 79.56Q687.22 88.71 687.22 101.31Q687.22 126.85 672.77 139.70Q658.32 152.55 633.96 152.55M628.08 119.79Q629.26 125.84 630.52 127.02Q631.78 128.19 633.88 128.19Q635.98 128.19 637.24 127.02Q638.50 125.84 639.59 119.79Q640.68 113.74 640.68 104.59Q640.68 95.43 640.26 90.48Q639.84 85.52 639.25 82.83Q638.66 80.14 637.66 78.63Q636.14 76.45 634.04 76.45Q631.94 76.45 630.60 77.71Q629.26 78.97 628.08 85.10Q626.90 91.23 626.90 102.49Q626.90 113.74 628.08 119.79" fill="#2563eb" />
</svg>
